HIERARCHY
ROOT root
{
	OFFSET 0.00 0.00 0.00
	CHANNELS 6 Xposition Yposition Zposition Zrotation Xrotation Yrotation
	JOINT lowerback
	{
		OFFSET 0 0 0
		CHANNELS 6 Xposition Yposition Zposition Zrotation Xrotation Yrotation
		JOINT upperback
		{
			OFFSET -0.214371 12.3768 -1.12219
			CHANNELS 6 Xposition Yposition Zposition Zrotation Xrotation Yrotation
			JOINT thorax
			{
				OFFSET -0.00137213 12.3873 0.296195
				CHANNELS 6 Xposition Yposition Zposition Zrotation Xrotation Yrotation
				JOINT lowerneck
				{
					OFFSET 0.0883157 12.5016 0.82912
					CHANNELS 6 Xposition Yposition Zposition Zrotation Xrotation Yrotation
					JOINT upperneck
					{
						OFFSET -1 10.1794 0.943522
						CHANNELS 6 Xposition Yposition Zposition Zrotation Xrotation Yrotation
						JOINT head
						{
							OFFSET 0.667525 10.2797 -1.57149
							CHANNELS 6 Xposition Yposition Zposition Zrotation Xrotation Yrotation
							End Site
							{
								OFFSET 0 0 0
							}
						}
					}
				}
				JOINT lclavicle
				{
					OFFSET 0.0883157 12.5016 0.82912
					CHANNELS 6 Xposition Yposition Zposition Zrotation Xrotation Yrotation
					JOINT lhumerus
					{
						OFFSET 20.61 4.45006 1.43784
						CHANNELS 6 Xposition Yposition Zposition Zrotation Xrotation Yrotation
						JOINT lradius
						{
							OFFSET 0 -30.3438 0
							CHANNELS 6 Xposition Yposition Zposition Zrotation Xrotation Yrotation
							JOINT lwrist
							{
								OFFSET 0 -18.964 0
								CHANNELS 6 Xposition Yposition Zposition Zrotation Xrotation Yrotation
								JOINT lhand
								{
									OFFSET 0 -9.48199 0
									CHANNELS 6 Xposition Yposition Zposition Zrotation Xrotation Yrotation
									JOINT lfingers
									{
										OFFSET 0 -3.17138 0
										CHANNELS 6 Xposition Yposition Zposition Zrotation Xrotation Yrotation
										End Site
										{
											OFFSET 0 -2.55685 0
										}
									}
								}
								JOINT lthumb
								{
									OFFSET 0 -9.48199 0
									CHANNELS 6 Xposition Yposition Zposition Zrotation Xrotation Yrotation
									End Site
									{
										OFFSET 0 -3.67114 0
									}
								}
							}
						}
					}
				}
				JOINT rclavicle
				{
					OFFSET 0.0883157 12.5016 0.82912
					CHANNELS 6 Xposition Yposition Zposition Zrotation Xrotation Yrotation
					JOINT rhumerus
					{
						OFFSET -20.61 4.45 1.44
						CHANNELS 6 Xposition Yposition Zposition Zrotation Xrotation Yrotation
						JOINT rradius
						{
							OFFSET 0 -29.5102 0
							CHANNELS 6 Xposition Yposition Zposition Zrotation Xrotation Yrotation
							JOINT rwrist
							{
								OFFSET 0 -19.2342 0
								CHANNELS 6 Xposition Yposition Zposition Zrotation Xrotation Yrotation
								JOINT rhand
								{
									OFFSET 0 -9.61712 0
									CHANNELS 6 Xposition Yposition Zposition Zrotation Xrotation Yrotation
									JOINT rfingers
									{
										OFFSET 0 -3.29215 0
										CHANNELS 6 Xposition Yposition Zposition Zrotation Xrotation Yrotation
										End Site
										{
											OFFSET 0 -2.557 0
										}
									}
								}
								JOINT rthumb
								{
									OFFSET 0 -9.61712 0
									CHANNELS 6 Xposition Yposition Zposition Zrotation Xrotation Yrotation
									End Site
									{
										OFFSET 0 -3.671 0
									}
								}
							}
						}
					}
				}
			}
		}
	}
	JOINT rfemur
	{
		OFFSET -8.46272 -9.62775 4.76248
		CHANNELS 6 Xposition Yposition Zposition Zrotation Xrotation Yrotation
		JOINT rtibia
		{
			OFFSET 1.00552e-005 -38.0331 0
			CHANNELS 6 Xposition Yposition Zposition Zrotation Xrotation Yrotation
			JOINT rfoot
			{
				OFFSET 1.14428e-005 -43.2815 0
				CHANNELS 6 Xposition Yposition Zposition Zrotation Xrotation Yrotation
				JOINT rtoes
				{
					OFFSET 0 -14.1868 -3.08763
					CHANNELS 6 Xposition Yposition Zposition Zrotation Xrotation Yrotation
					End Site
					{
						OFFSET 0 -7.27332 0
					}
				}
			}
		}
	}
	JOINT lfemur
	{
		OFFSET 9.10607 -9.62778 4.76249
		CHANNELS 6 Xposition Yposition Zposition Zrotation Xrotation Yrotation
		JOINT ltibia
		{
			OFFSET -1.01399e-005 -38.3535 0
			CHANNELS 6 Xposition Yposition Zposition Zrotation Xrotation Yrotation
			JOINT lfoot
			{
				OFFSET -1.12937e-005 -42.7176 0
				CHANNELS 6 Xposition Yposition Zposition Zrotation Xrotation Yrotation
				JOINT ltoes
				{
					OFFSET 0 -13.9965 -2.83857
					CHANNELS 6 Xposition Yposition Zposition Zrotation Xrotation Yrotation
					End Site
					{
						OFFSET 0 -7.16348 0
					}
				}
			}
		}
	}
}
MOTION
Frames: 5
Frame Time: 0.00833333
3.46781	97.8017	123.459	5.93532	-1.41622	-12.8896	0 0 0 -7.77053	-2.11992	-4.00199	-0.214371 12.3768 -1.12219 -0.275126	-5.57856	-5.57497	-0.00137213 12.3873 0.296195 4.39598	-3.91712	-2.53554	0.0883157 12.5016 0.82912 -1.24926	-13.2264	-1.93243	-1 10.1794 0.943522 7.6496	27.8044	-5.61606	0.667525 10.2797 -1.57149 1.65063	11.4102	-2.13118	0.0883157 12.5016 0.82912 -15	0	-0	20.61 4.45006 1.43784 18.1175	18.7004	155.235	0 -30.3438 0 -0	89.2725	-0	0 -18.964 0 1.39376e-014	-1.15581e-015	-99.4811	0 -9.48199 0 1.22245	4.37968	-2.58917e-014	0 -3.17138 0 -0	7.12502	-0	0 -9.48199 0 25	15	-1.36605e-015	0.0883157 12.5016 0.82912 15	0	-0	-20.61 4.45 1.44 -44.1536	4.86378	-148.349	0 -29.5102 0 -180	50.1109	180	0 -19.2342 0 1.56365e-017	-4.68177e-016	93.8258	0 -9.61712 0 1.22	4.38	-0	0 -3.29215 0 -0	7.12502	-0	0 -9.61712 0 25	15	-7.97034e-015	-8.46272 -9.62775 4.76248 1.08504	-34.0108	-2.794	1.00552e-005 -38.0331 0 -0	28.339	-0	1.14428e-005 -43.2815 0 -9.15821	-54.2739	-11.2319	0 -14.1868 -3.08763 -0	-36.3086	-0	9.10607 -9.62778 4.76249 -15.4833	20.0999	18.408	-1.01399e-005 -38.3535 0 -0	0.0581243	-0	-1.12937e-005 -42.7176 0 -10.4364	-64.5917	-11.5256	0 -13.9965 -2.83857 -0	-32.9075	-0
3.37817	97.6335	123.994	6.0909	-1.36003	-12.8135	0 0 0 -7.84844	-2.16984	-3.90314	-0.214371 12.3768 -1.12219 -0.33149	-5.57995	-5.44284	-0.00137213 12.3873 0.296195 4.36984	-3.90885	-2.46903	0.0883157 12.5016 0.82912 -0.82803	-13.3567	-1.60002	-1 10.1794 0.943522 7.34699	28.0674	-5.18152	0.667525 10.2797 -1.57149 1.56278	11.5071	-1.92107	0.0883157 12.5016 0.82912 -15	0	-0	20.61 4.45006 1.43784 18.0377	19.0512	155.074	0 -30.3438 0 -0	89.1964	-0	0 -18.964 0 1.3939e-014	-1.14747e-015	-99.4121	0 -9.48199 0 1.22245	4.37968	-2.58917e-014	0 -3.17138 0 -0	7.12502	-0	0 -9.48199 0 25	15	-1.36605e-015	0.0883157 12.5016 0.82912 15	0	-0	-20.61 4.45 1.44 -43.7696	4.6003	-148.315	0 -29.5102 0 -180	49.9641	180	0 -19.2342 0 1.77112e-017	-4.98232e-016	94.0718	0 -9.61712 0 1.22	4.38	-0	0 -3.29215 0 -0	7.12502	-0	0 -9.61712 0 25	15	-7.97034e-015	-8.46272 -9.62775 4.76248 0.961679	-33.9664	-3.244	1.00552e-005 -38.0331 0 -0	28.3222	-0	1.14428e-005 -43.2815 0 -9.15034	-54.1094	-11.245	0 -14.1868 -3.08763 -0	-35.8562	-0	9.10607 -9.62778 4.76249 -15.631	20.4086	18.3937	-1.01399e-005 -38.3535 0 -0	0.010782	-0	-1.12937e-005 -42.7176 0 -10.8616	-64.7045	-11.9819	0 -13.9965 -2.83857 -0	-33.0143	-0
3.28572	97.445	124.53	6.23969	-1.32858	-12.7361	0 0 0 -7.92858	-2.1885	-3.80854	-0.214371 12.3768 -1.12219 -0.386839	-5.5808	-5.31879	-0.00137213 12.3873 0.296195 4.34957	-3.91472	-2.40558	0.0883157 12.5016 0.82912 -0.43931	-13.4773	-1.2932	-1 10.1794 0.943522 7.04917	28.2954	-4.77177	0.667525 10.2797 -1.57149 1.47827	11.5931	-1.7255	0.0883157 12.5016 0.82912 -15	0	-0	20.61 4.45006 1.43784 17.9549	19.4167	154.964	0 -30.3438 0 -0	89.1082	-0	0 -18.964 0 1.39404e-014	-1.13897e-015	-99.3417	0 -9.48199 0 1.22245	4.37968	-2.58917e-014	0 -3.17138 0 -0	7.12502	-0	0 -9.48199 0 25	15	-1.36605e-015	0.0883157 12.5016 0.82912 15	0	-0	-20.61 4.45 1.44 -43.3969	4.32108	-148.257	0 -29.5102 0 -180	49.8252	180	0 -19.2342 0 1.9925e-017	-5.28412e-016	94.3189	0 -9.61712 0 1.22	4.38	-0	0 -3.29215 0 -0	7.12502	-0	0 -9.61712 0 25	15	-7.97034e-015	-8.46272 -9.62775 4.76248 0.891813	-33.8638	-3.47167	1.00552e-005 -38.0331 0 -0	28.4244	-0	1.14428e-005 -43.2815 0 -9.15407	-54.1698	-11.2412	0 -14.1868 -3.08763 -0	-35.2917	-0	9.10607 -9.62778 4.76249 -15.7691	20.7533	18.3811	-1.01399e-005 -38.3535 0 -0	-0.0371348	-0	-1.12937e-005 -42.7176 0 -11.3682	-64.8069	-12.5274	0 -13.9965 -2.83857 -0	-33.1134	-0
3.19049	97.2401	125.071	6.37562	-1.32043	-12.6518	0 0 0 -8.00463	-2.17897	-3.7193	-0.214371 12.3768 -1.12219 -0.438815	-5.58102	-5.20379	-0.00137213 12.3873 0.296195 4.33366	-3.93285	-2.34597	0.0883157 12.5016 0.82912 -0.0870593	-13.5885	-1.01379	-1 10.1794 0.943522 6.75449	28.4918	-4.38853	0.667525 10.2797 -1.57149 1.39656	11.6691	-1.54578	0.0883157 12.5016 0.82912 -15	0	-0	20.61 4.45006 1.43784 17.8695	19.7939	154.896	0 -30.3438 0 -0	88.9998	-0	0 -18.964 0 1.39417e-014	-1.13104e-015	-99.2761	0 -9.48199 0 1.22245	4.37968	-2.58917e-014	0 -3.17138 0 -0	7.12502	-0	0 -9.48199 0 25	15	-1.36605e-015	0.0883157 12.5016 0.82912 15	0	-0	-20.61 4.45 1.44 -43.0369	4.03235	-148.177	0 -29.5102 0 -180	49.6953	180	0 -19.2342 0 2.22164e-017	-5.57923e-016	94.5606	0 -9.61712 0 1.22	4.38	-0	0 -3.29215 0 -0	7.12502	-0	0 -9.61712 0 25	15	-7.97034e-015	-8.46272 -9.62775 4.76248 0.88166	-33.7036	-3.47099	1.00552e-005 -38.0331 0 -0	28.6212	-0	1.14428e-005 -43.2815 0 -9.17533	-54.4432	-11.2295	0 -14.1868 -3.08763 -0	-34.6116	-0	9.10607 -9.62778 4.76249 -15.8895	21.1321	18.3642	-1.01399e-005 -38.3535 0 -0	-0.0803316	-0	-1.12937e-005 -42.7176 0 -11.941	-64.8943	-13.1456	0 -13.9965 -2.83857 -0	-33.215	-0
3.09174	97.0256	125.621	6.49268	-1.33264	-12.5552	0 0 0 -8.06979	-2.14589	-3.6363	-0.214371 12.3768 -1.12219 -0.484723	-5.5769	-5.09835	-0.00137213 12.3873 0.296195 4.32023	-3.96065	-2.29083	0.0883157 12.5016 0.82912 0.226022	-13.6907	-0.763151	-1 10.1794 0.943522 6.46186	28.6599	-4.03333	0.667525 10.2797 -1.57149 1.31715	11.7359	-1.38296	0.0883157 12.5016 0.82912 -15	0	-0	20.61 4.45006 1.43784 17.7823	20.1787	154.861	0 -30.3438 0 -0	88.8643	-0	0 -18.964 0 1.39427e-014	-1.12454e-015	-99.2223	0 -9.48199 0 1.22245	4.37968	-2.58917e-014	0 -3.17138 0 -0	7.12502	-0	0 -9.48199 0 25	15	-1.36605e-015	0.0883157 12.5016 0.82912 15	0	-0	-20.61 4.45 1.44 -42.6902	3.7408	-148.075	0 -29.5102 0 -180	49.5756	180	0 -19.2342 0 2.45154e-017	-5.86033e-016	94.7909	0 -9.61712 0 1.22	4.38	-0	0 -3.29215 0 -0	7.12502	-0	0 -9.61712 0 25	15	-7.97034e-015	-8.46272 -9.62775 4.76248 0.932648	-33.4898	-3.2516	1.00552e-005 -38.0331 0 -0	28.8904	-0	1.14428e-005 -43.2815 0 -9.22528	-54.9105	-11.2267	0 -14.1868 -3.08763 -0	-33.8232	-0	9.10607 -9.62778 4.76249 -15.9838	21.5414	18.3372	-1.01399e-005 -38.3535 0 -0	-0.113805	-0	-1.12937e-005 -42.7176 0 -12.5567	-64.9618	-13.8116	0 -13.9965 -2.83857 -0	-33.3316	-0
